# AST/ASF file generated using VICON BodyLanguage
# -----------------------------------------------
:version 1.10
:name VICON
:units
  mass 1.0
  length 0.45
  angle deg
:documentation
   .ast/.asf automatically generated from VICON data using
   VICON BodyBuilder and BodyLanguage model FoxedUp or BRILLIANT.MOD
:root
   order TX TY TZ RX RY RZ
   axis XYZ
   position 0 0 0  
   orientation 0 0 0 
:bonedata
  begin
     id 1 
     name lhipjoint
     direction 0.576517 -0.752066 0.319413 
     length 2.45433 
     axis 0 0 0  XYZ
  end
  begin
     id 2 
     name lfemur
     direction 0.34202 -0.939693 0  
     length 7.54459  
     axis 0 0 20  XYZ
    dof rx ry rz
    limits (-160.0 20.0)
           (-70.0 70.0)
           (-60.0 70.0)
  end
  begin
     id 3 
     name ltibia
     direction 0.34202 -0.939693 0   
     length 7.73986   
     axis 0 0 20   XYZ
    dof rx
    limits (-10.0 170.0)
  end
  begin
     id 4 
     name lfoot
     direction 0.090693 -0.249177 0.964202   
     length 2.28437   
     axis -90 7.62852e-016 20   XYZ
    dof rx rz
    limits (-45.0 90.0)
           (-70.0 20.0)
  end
  begin
     id 5 
     name ltoes
     direction 1.5356e-011 -4.21928e-011 1   
     length 1.14243   
     axis -90 7.62852e-016 20   XYZ
    dof rx
    limits (-90.0 20.0)
  end
  begin
     id 6 
     name rhipjoint
     direction -0.573937 -0.753736 0.320122   
     length 2.44889  
     axis 0 0 0  XYZ 
  end
  begin
     id 7 
     name rfemur
     direction -0.34202 -0.939693 0   
     length 7.50166   
     axis 0 0 -20   XYZ
    dof rx ry rz
    limits (-160.0 20.0)
           (-70.0 70.0)
           (-70.0 60.0)
  end
  begin
     id 8 
     name rtibia
     direction -0.34202 -0.939693 0   
     length 7.54266   
     axis 0 0 -20   XYZ
    dof rx
    limits (-10.0 170.0)
 end
 begin
     id 9 
     name rfoot
     direction -0.114017 -0.31326 0.942798   
     length 2.34212  
     axis -90 -7.62852e-016 -20   XYZ
    dof rx rz
    limits (-45.0 90.0)
           (-20.0 70.0)
  end
  begin
     id 10 
     name rtoes
     direction -1.53557e-011 -4.21867e-011 1   
     length 1.16246   
     axis -90 -7.62852e-016 -20   XYZ
    dof rx
    limits (-90.0 20.0)
  end
  begin
     id 11 
     name lowerback
     direction -0.0228371 0.999155 -0.034167   
     length 2.0537   
     axis 0 0 0   XYZ
    dof rx ry rz
    limits (-20.0 45.0)
           (-30.0 30.0)
           (-30.0 30.0)
  end
  begin
     id 12 
     name upperback
     direction 0.0198981 0.999794 0.00389455   
     length 2.05302   
     axis 0 0 0   XYZ
    dof rx ry rz
    limits (-20.0 45.0)
           (-30.0 30.0)
           (-30.0 30.0)
  end
  begin
     id 13 
     name thorax
     direction 0.0304566 0.99935 0.0192987   
     length 2.05315   
     axis 0 0 0   XYZ
    dof rx ry rz
    limits (-20.0 45.0)
           (-30.0 30.0)
           (-30.0 30.0)
  end
  begin
     id 14 
     name lowerneck
     direction -0.0196762 0.99417 0.106017   
     length 1.82056   
     axis 0 0 0   XYZ
    dof rx ry rz
    limits (-20.0 45.0)
           (-30.0 30.0)
           (-30.0 30.0)
  end
  begin
     id 15 
     name upperneck
     direction 0.00517787 0.9802 -0.197944   
     length 1.83835   
     axis 0 0 0   XYZ
    dof rx ry rz
    limits (-20.0 45.0)
           (-30.0 30.0)
           (-30.0 30.0)
  end
  begin
     id 16
     name head
     direction 0.00211419 0.996945 -0.078081  
     length 1.85629  
     axis 0 0 0   XYZ
    dof rx ry rz
    limits (-20.0 45.0)
           (-30.0 30.0)
           (-30.0 30.0)
  end
  begin
     id 17 
     name lclavicle
     direction 0.930001 0.365811 -0.0357824  
     length 3.81961  
     axis 0 0 0   XYZ
    dof ry rz
    limits (-20.0 10.0)
           (0.0 20.0)
  end
  begin
     id 18 
     name lhumerus
     direction 1 -4.48968e-011 -3.06644e-027   
     length 5.14507   
     axis 180 -30 -90   XYZ
    dof rx ry rz
    limits (-60.0 90.0)
           (-90.0 90.0)
           (-90.0 90.0)
  end
  begin
     id 19
     name lradius
     direction 1 -4.48965e-011 9.06925e-028   
     length 3.50646   
     axis 180 -30 -90   XYZ
    dof rx
    limits (-10.0 170.0)
  end
  begin
     id 20
     name lwrist
     direction 1 -4.48957e-011 1.03922e-027   
     length 1.75323   
     axis -2.56395e-016 90 90   XYZ
    dof ry
    limits (-180.0 0.0)
 end
  begin
     id 21 
     name lhand
     direction 1 -4.48967e-011 2.08017e-027   
     length 0.629969   
     axis -1.32723e-015 90 90   XYZ
    dof rx rz
    limits (-90.0 90.0)
           (-45.0 45.0)
  end
  begin
     id 22 
     name lfingers
     direction 1 -4.49089e-011 4.20095e-027   
     length 0.507897   
     axis -2.6545e-015 90 90   XYZ
    dof rx
    limits (0.0 90.0)
  end
  begin
     id 23
     name lthumb
     direction 0.707107 -6.35001e-011 0.707107   
     length 0.729241   
     axis -90 45 5.05613e-014   XYZ
    dof rx rz
    limits (-45.0 45.0)
           (-45.0 45.0)
  end
  begin
     id 24 
     name rclavicle
     direction -0.881882 0.464123 -0.0829113   
     length 3.47515  
     axis 0 0 0   XYZ 
    dof ry rz
    limits (-10.0 20.0)
           (-20.0 0.0)
  end
  begin
     id 25 
     name rhumerus
     direction -1 -4.48961e-011 -1.55672e-027  
     length 5.232   
     axis 180 30 90   XYZ
    dof rx ry rz
    limits (-90.0 60.0)
           (-90.0 90.0)
           (-90.0 90.0)
  end
  begin
     id 26 
     name rradius
     direction -1 -4.48963e-011 6.18178e-029   
     length 3.65641   
     axis 180 30 90   XYZ
    dof rx
    limits (-10.0 170.0)
  end
  begin
     id 27 
     name rwrist
     direction -1 -4.48982e-011 1.04136e-027   
     length 1.8282   
     axis -2.56395e-016 -90 -90   XYZ
    dof ry
    limits (-180.0 0.0)
  end
  begin
     id 28
     name rhand
     direction -1 -4.48929e-011 2.07378e-027   
     length 0.656807   
     axis -1.32723e-015 -90 -90   XYZ
    dof rx rz
    limits (-90.0 90.0)
           (-45.0 45.0)
  end
  begin
     id 29
     name rfingers
     direction -1 -4.489e-011 4.13816e-027   
     length 0.529535   
     axis -2.6545e-015 -90 -90   XYZ
    dof rx
    limits (0.0 90.0)
  end
  begin
     id 30
     name rthumb
     direction -0.707107 -6.34843e-011 0.707107   
     length 0.760309   
     axis -90 -45 -5.05613e-014   XYZ
    dof rx rz
    limits (-45.0 45.0)
           (-45.0 45.0)
  end
:hierarchy
  begin
    root lhipjoint rhipjoint lowerback
    lhipjoint lfemur
    lfemur ltibia
    ltibia lfoot
    lfoot ltoes
    rhipjoint rfemur
    rfemur rtibia
    rtibia rfoot
    rfoot rtoes
    lowerback upperback
    upperback thorax
    thorax lowerneck lclavicle rclavicle
    lowerneck upperneck
    upperneck head
    lclavicle lhumerus
    lhumerus lradius
    lradius lwrist
    lwrist lhand lthumb
    lhand lfingers
    rclavicle rhumerus
    rhumerus rradius
    rradius rwrist
    rwrist rhand rthumb
    rhand rfingers
  end

#!OML:ASF H:\ManfredETheater\Project 1\Capture day 1\Session 1\subject.ASF
:FULLY-SPECIFIED
:DEGREES
46
root 3.79264 14.6226 26.0556 -130.454 1.8712 -162.897
lowerback 33.7708 3.14609 5.12239
upperback 8.10571 7.64437 -2.0054
thorax -7.36673 4.36705 -7.6298
lowerneck -10.4594 -0.991904 2.47081
upperneck -0.39254 -1.71352 -7.09367
head 1.61928 -1.16481 -2.81861
rclavicle 6.55989e-014 -5.02863e-014
rhumerus 9.30443 9.948 -83.3703
rradius 100.954
rwrist -3.31147
rhand -24.3023 1.45961
rfingers 7.12502
rthumb 2.18539 -28.5089
lclavicle 6.55989e-014 -5.02863e-014
lhumerus 0.574001 3.38743 69.7076
lradius 88.2777
lwrist 6.36458
lhand -32.2563 -1.7713
lfingers 7.12502
lthumb -5.49616 28.1374
rfemur -8.49101 -5.54877 29.7168
rtibia 19.858
rfoot 26.6453 5.55951
rtoes -28.29
lfemur -103.222 -0.80058 -13.9307
ltibia 76.3598
lfoot -14.0605 1.71326
ltoes 26.7159
47
root 3.79584 14.7379 25.5724 -129.27 0.890429 -162.966
lowerback 34.0288 3.0486 4.94066
upperback 8.20813 7.47636 -2.32408
thorax -7.3596 4.30349 -7.82897
lowerneck -10.4025 -1.06219 2.4455
upperneck -0.782693 -1.83665 -6.87044
head 1.4744 -1.21719 -2.73474
rclavicle -1.15295e-014 6.32073e-015
rhumerus 10.4796 9.33305 -83.0314
rradius 101.714
rwrist -3.30534
rhand -24.6884 1.55079
rfingers 7.12502
rthumb 1.81252 -28.4213
lclavicle -1.15295e-014 6.32073e-015
lhumerus 3.98267 3.43677 68.8301
lradius 88.2725
lwrist 6.99332
lhand -32.2763 -1.5669
lfingers 7.12502
lthumb -5.51546 28.3413
rfemur -10.021 -7.4332 30.1104
rtibia 22.2771
rfoot 25.4134 5.57189
rtoes -27.791
lfemur -102.419 -1.6015 -12.4395
ltibia 76.2412
lfoot -15.4526 1.87788
ltoes 25.7581
48
root 3.79316 14.8678 25.086 -128.072 0.0482919 -162.878
lowerback 34.2944 3.05267 4.67854
upperback 8.34725 7.42125 -2.61332
thorax -7.3106 4.29798 -7.9894
lowerneck -10.2797 -1.12478 2.42518
upperneck -1.21296 -1.95236 -6.77487
head 1.30601 -1.27 -2.69306
rclavicle -1.58531e-014 5.69642e-015
rhumerus 11.8431 8.72308 -82.5804
rradius 102.374
rwrist -3.31333
rhand -25.1661 1.60334
rfingers 7.12502
rthumb 1.35118 -28.3721
lclavicle -1.58531e-014 5.69642e-015
lhumerus 7.61458 3.56423 68.0327
lradius 88.1195
lwrist 7.46949
lhand -32.3719 -1.47058
lfingers 7.12502
lthumb -5.60783 28.4352
rfemur -11.6843 -9.29885 30.5653
rtibia 25.2292
rfoot 23.4459 5.32327
rtoes -28.2621
lfemur -101.384 -2.18064 -11.0045
ltibia 75.7825
lfoot -16.7656 2.11042
ltoes 24.9261
49
root 3.78539 15.0107 24.5957 -126.845 -0.69649 -162.609
lowerback 34.5556 3.16782 4.34894
upperback 8.49981 7.49039 -2.84819
thorax -7.23906 4.35093 -8.09635
lowerneck -10.1356 -1.18768 2.41207
upperneck -1.63686 -2.07069 -6.82589
head 1.13644 -1.32937 -2.70224
rclavicle -1.00088e-013 5.49882e-014
rhumerus 13.3772 8.13152 -82.0185
rradius 102.91
rwrist -3.37189
rhand -25.6891 1.64253
rfingers 7.12502
rthumb 0.846022 -28.3355
lclavicle -1.00088e-013 5.49882e-014
lhumerus 11.4233 3.76527 67.3304
lradius 87.795
lwrist 7.71965
lhand -32.5655 -1.46162
lfingers 7.12502
lthumb -5.79471 28.4391
rfemur -13.4348 -11.083 31.1121
rtibia 28.5535
rfoot 21.1632 4.90908
rtoes -29.5467
lfemur -100.163 -2.53201 -9.59765
ltibia 75.0076
lfoot -17.9673 2.40334
ltoes 24.2216
50
root 3.77245 15.164 24.1016 -125.579 -1.42103 -162.207
lowerback 34.8032 3.36083 3.99979
upperback 8.65141 7.65415 -3.01558
thorax -7.15806 4.44532 -8.15186
lowerneck -10.0169 -1.26244 2.36592
upperneck -2.00049 -2.20068 -6.97491
head 0.990693 -1.39869 -2.74043
rclavicle -1.08536e-013 5.36439e-014
rhumerus 15.0696 7.56706 -81.3444
rradius 103.303
rwrist -3.51104
rhand -26.2171 1.64422
rfingers 7.12502
rthumb 0.336075 -28.3353
lclavicle -1.08536e-013 5.36439e-014
lhumerus 15.3405 4.02876 66.7462
lradius 87.2983
lwrist 7.68081
lhand -32.8756 -1.50167
lfingers 7.12502
lthumb -6.09409 28.3907
rfemur -15.2608 -12.7755 31.7567
rtibia 32.1631
rfoot 18.9747 4.44132
rtoes -31.1678
lfemur -98.8056 -2.73348 -8.18804
ltibia 73.9353
lfoot -19.0151 2.74097
ltoes 23.5641
51
root 3.75466 15.3256 23.6048 -124.268 -2.18711 -161.748
lowerback 35.0544 3.57687 3.67629
upperback 8.77951 7.85135 -3.13288
thorax -7.10148 4.54858 -8.18148
lowerneck -9.90728 -1.34771 2.32183
upperneck -2.34199 -2.34815 -7.21652
head 0.852514 -1.48001 -2.81155
rclavicle -6.82825e-014 2.56681e-014
rhumerus 16.8967 7.05426 -80.5959
rradius 103.536
rwrist -3.75028
rhand -26.7316 1.62634
rfingers 7.12502
rthumb -0.160869 -28.3533
lclavicle -6.82825e-014 2.56681e-014
lhumerus 19.2868 4.36007 66.2311
lradius 86.6322
lwrist 7.35601
lhand -33.2925 -1.55043
lfingers 7.12502
lthumb -6.4966 28.3299
rfemur -17.1669 -14.3774 32.4834
rtibia 36.0153
rfoot 17.1677 3.95282
rtoes -32.5706
lfemur -97.3665 -2.86312 -6.77479
ltibia 72.576
lfoot -19.8456 3.08575
ltoes 22.8764
52
root 3.73102 15.4936 23.1047 -122.952 -3.0459 -161.347
lowerback 35.3506 3.74616 3.41997
upperback 8.89294 8.01229 -3.21263
thorax -7.07909 4.63005 -8.1999
lowerneck -9.81475 -1.44218 2.25953
upperneck -2.6502 -2.50781 -7.49751
head 0.727096 -1.56889 -2.89403
rclavicle 2.78299e-015 -1.75303e-014
rhumerus 18.8411 6.60642 -79.7861
rradius 103.606
rwrist -4.0637
rhand -27.1894 1.58576
rfingers 7.12502
rthumb -0.602994 -28.3931
lclavicle 2.78299e-015 -1.75303e-014
lhumerus 23.2016 4.76673 65.7737
lradius 85.8052
lwrist 6.79715
lhand -33.7795 -1.57903
lfingers 7.12502
lthumb -6.9667 28.2863
rfemur -19.0893 -15.9704 33.227
rtibia 40.0538
rfoot 15.958 3.47735
rtoes -32.9544
lfemur -95.8563 -3.04941 -5.37833
ltibia 70.9427
lfoot -20.4056 3.40372
ltoes 22.1255
53
root 3.70451 15.6663 22.6017 -121.585 -3.98769 -161.04
lowerback 35.6283 3.8689 3.19175
upperback 8.9852 8.11402 -3.26632
thorax -7.08072 4.67767 -8.18611
lowerneck -9.71429 -1.53729 2.16144
upperneck -2.95673 -2.66735 -7.77114
head 0.600834 -1.65674 -2.96728
rclavicle -3.16068e-014 6.55989e-014
rhumerus 20.8749 6.24037 -78.9451
rradius 103.518
rwrist -4.37899
rhand -27.5848 1.52139
rfingers 7.12502
rthumb -0.98494 -28.4561
lclavicle -3.16068e-014 6.55989e-014
lhumerus 27.0261 5.26539 65.3394
lradius 84.8363
lwrist 6.13628
lhand -34.2579 -1.58056
lfingers 7.12502
lthumb -7.42847 28.269
rfemur -21.0391 -17.5216 33.9648
rtibia 44.2148
rfoot 15.3721 3.00951
rtoes -31.9334
lfemur -94.3451 -3.27945 -4.01759
ltibia 69.0431
lfoot -20.6564 3.65249
ltoes 21.2223
